<svg width="21" height="20" viewBox="0 0 21 20" fill="none" xmlns="http://www.w3.org/2000/svg">
<g clip-path="url(#clip0)">
<path d="M0.971426 11.0015L10.8173 11.0015L9.18512 12.7082C9.00286 12.8965 8.90566 13.1489 8.90566 13.4174C8.90566 13.6858 9.00691 13.9342 9.18512 14.1265C9.55773 14.5151 10.1653 14.5151 10.5419 14.1265L13.8104 10.713C13.9319 10.5848 14.0129 10.4326 14.0574 10.2683C14.0574 10.2603 14.0615 10.2523 14.0615 10.2443C14.0615 10.2403 14.0615 10.2403 14.0615 10.2363C14.0777 10.1602 14.0898 10.084 14.0898 10.0039C14.0898 9.90775 14.0777 9.8156 14.0534 9.72746C14.0534 9.72346 14.0493 9.71945 14.0493 9.71544C14.0493 9.70743 14.0453 9.70342 14.0453 9.69541C14.0007 9.55118 13.9238 9.41096 13.8104 9.29477L10.5419 5.88131C10.3597 5.69301 10.1207 5.58884 9.86554 5.58884C9.61039 5.58884 9.37143 5.69301 9.18917 5.88131C9.00691 6.06961 8.90971 6.32201 8.90971 6.59044C8.90971 6.85887 9.01096 7.10727 9.18917 7.29958L10.8214 9.00631L0.975477 9.00631C0.436807 9.00631 0.00344034 9.45503 0.00344029 10.0079C-0.000610014 10.5528 0.432757 11.0015 0.971426 11.0015Z" fill="#E73E3E"/>
<path d="M6.09258 4.12393C7.46963 3.02217 9.17069 2.44925 10.8961 2.44925C11.8438 2.44925 12.7956 2.62153 13.7028 2.97409C14.9867 3.47489 16.1207 4.32425 16.9753 5.42602C17.4208 6.00294 17.7934 6.63996 18.0851 7.33707C18.806 9.0438 18.806 10.9589 18.0851 12.6656C17.7894 13.3627 17.4208 13.9997 16.9753 14.5726C16.1167 15.6784 14.9867 16.5238 13.7028 17.0246C11.1391 18.0222 8.22296 17.5815 6.09258 15.8747C5.59846 15.4781 4.88564 15.5142 4.43607 15.9589C4.18901 16.2033 4.05941 16.5398 4.07561 16.8843C4.09181 17.2289 4.25787 17.5534 4.52922 17.7698C5.90627 18.8795 7.55468 19.6087 9.3003 19.8811C11.0824 20.1576 12.9616 19.9573 14.7396 19.3042C14.768 19.2922 14.8004 19.2802 14.8287 19.2682C17.3196 18.1384 19.2434 16.2113 20.2397 13.8315C21.2361 11.4517 21.2563 8.74332 20.2964 6.20326C20.2843 6.17521 20.2721 6.14316 20.26 6.11512C19.3933 4.23611 18.0567 2.67762 16.3962 1.60791C14.7639 0.558227 12.8604 0.00133634 10.8961 0.00133617C8.54697 0.00133596 6.34774 0.770566 4.53733 2.22489C4.26597 2.44524 4.09991 2.76576 4.07966 3.11432C4.06346 3.45887 4.19307 3.79541 4.44012 4.0398C4.88564 4.48451 5.59846 4.52057 6.09258 4.12393Z" fill="#E73E3E"/>
</g>
<defs>
<clipPath id="clip0">
<rect width="21" height="20" fill="white" transform="translate(21 20) rotate(-180)"/>
</clipPath>
</defs>
</svg>
