<svg width="21" height="25" viewBox="0 0 21 25" fill="none" xmlns="http://www.w3.org/2000/svg">
<path d="M17.8792 1.85403C16.7318 0.556346 14.6578 0 12.0045 0H4.30384C3.76099 0 3.2997 0.391755 3.21471 0.922936L0.00832372 21.1017C-0.0554201 21.4996 0.255074 21.86 0.661527 21.86H5.41558L6.60958 14.3453L6.57257 14.5806C6.65756 14.0494 7.11542 13.6577 7.65759 13.6577H9.91672C14.3548 13.6577 17.8299 11.8689 18.845 6.69452C18.8751 6.54149 18.9012 6.39254 18.9238 6.24699C18.7956 6.17966 18.7956 6.17966 18.9238 6.24699C19.2261 4.33447 18.9216 3.0327 17.8792 1.85403Z" fill="#003087"/>
<path d="M17.8792 1.85403C16.7318 0.556346 14.6578 0 12.0045 0H4.30384C3.76099 0 3.2997 0.391755 3.21471 0.922936L0.00832372 21.1017C-0.0554201 21.4996 0.255074 21.86 0.661527 21.86H5.41558L6.60958 14.3453L6.57257 14.5806C6.65756 14.0494 7.11542 13.6577 7.65759 13.6577H9.91672C14.3548 13.6577 17.8299 11.8689 18.845 6.69452C18.8751 6.54149 18.9012 6.39254 18.9238 6.24699C18.7956 6.17966 18.7956 6.17966 18.9238 6.24699C19.2261 4.33447 18.9216 3.0327 17.8792 1.85403Z" fill="#003087"/>
<path d="M7.89268 6.27216C7.94341 5.9525 8.1504 5.69065 8.42868 5.55802C8.55548 5.49817 8.69668 5.46484 8.84473 5.46484H14.8819C15.5968 5.46484 16.2637 5.51109 16.873 5.60835C17.0478 5.63621 17.2171 5.6682 17.3816 5.70493C17.5461 5.74095 17.7058 5.78178 17.8607 5.82667C17.9382 5.84909 18.0142 5.87227 18.089 5.89673C18.3885 5.99603 18.6675 6.11165 18.9238 6.24699C19.2261 4.33379 18.9216 3.0327 17.8792 1.85403C16.7311 0.556346 14.6578 0 12.0045 0H4.30315C3.76099 0 3.2997 0.391755 3.21471 0.922936L0.00832419 21.101C-0.0554197 21.4996 0.255075 21.8594 0.660842 21.8594H5.41559L6.60958 14.3446L7.89268 6.27216Z" fill="#002F86"/>
<path d="M18.9239 6.24609C18.9006 6.39232 18.8752 6.54059 18.8451 6.69362C17.83 11.8673 14.3549 13.6568 9.91678 13.6568H7.65695C7.11478 13.6568 6.65692 14.0485 6.57261 14.5797L5.41562 21.8584L5.08731 23.9233C5.03179 24.2715 5.30321 24.5871 5.65826 24.5871H9.66592C10.1402 24.5871 10.5439 24.2443 10.618 23.7798L10.6571 23.5771L11.4124 18.8271L11.4611 18.5646C11.5351 18.1 11.9388 17.7573 12.4131 17.7573H13.0129C16.8951 17.7573 19.935 16.1923 20.8233 11.666C21.1941 9.7746 21.0022 8.19534 20.0213 7.08605C19.7238 6.75007 19.3544 6.47258 18.924 6.24609" fill="#009CDE"/>
<path d="M17.8623 5.82667C17.7074 5.78178 17.5477 5.74098 17.3832 5.70493C17.2187 5.66886 17.0487 5.63692 16.8747 5.60903C16.2646 5.51109 15.5984 5.46484 14.8828 5.46484H8.84637C8.69764 5.46484 8.55644 5.4982 8.43033 5.5587C8.15136 5.69133 7.94505 5.9525 7.89433 6.27284L6.61123 14.3453L6.57422 14.5806C6.65852 14.0494 7.11638 13.6577 7.65855 13.6577H9.91836C14.3564 13.6577 17.8315 11.8689 18.8466 6.69451C18.8768 6.54149 18.9021 6.39322 18.9254 6.24699C18.6684 6.11233 18.3901 5.99602 18.0906 5.89741C18.0159 5.87292 17.9398 5.84909 17.8623 5.82667Z" fill="#012069"/>
</svg>
