<svg width="201" height="201" viewBox="0 0 201 201" fill="none" xmlns="http://www.w3.org/2000/svg">
<path d="M154.4 47.1914L200.999 66.7578L180.395 119.493L104.324 115.935L131.449 52.737L154.4 47.1914Z" fill="#BBCCEB"/>
<path d="M0 106.935L70.0717 11.1957L111.454 0L154.401 33.5872V47.1895L112.758 100.343L97.7179 143.556L70.3325 201L0 106.935Z" fill="#BBCCEB"/>
<path d="M111.457 0L101.807 2.61582L120.411 90.5075L124.671 85.1713L154.404 42.2717V33.5872L111.457 0Z" fill="#95BAFD"/>
<path d="M133.625 43.5291L145.275 35.6816V48.97L133.625 43.5291Z" fill="#0E3889"/>
<path d="M121.715 88.8361L154.403 47.1921V33.5898L121.715 88.8361Z" fill="#2D6EFC"/>
<path d="M0 106.938L46.4247 168.985L94.1534 123.051L90.0674 5.75781L70.0717 11.1987L0 106.938Z" fill="#2D6EFC"/>
<path d="M200.998 66.7554L181.176 58.3848L192.738 87.9959L200.998 66.7554Z" fill="#0E3889"/>
<path d="M130.316 128.178L108.495 151.406C108.495 151.406 103.887 148.791 97.1062 144.815C79.5448 134.247 47.8995 113.634 46.9432 101.915C45.7261 85.6969 69.7209 12.3492 70.0686 11.3028L102.757 2.51367L121.71 88.8359L130.316 128.178Z" fill="#194BB1"/>
</svg>
