<svg width="20" height="20" viewBox="0 0 30 30" fill="none" xmlns="http://www.w3.org/2000/svg">
                                <circle cx="15" cy="15" r="15" fill="#0F6EFF" fill-opacity="0.15"/>
                                <path d="M13.912 18.25H15.788V20H13.912V18.25ZM11.686 13.182C11.686 12.6687 11.7607 12.202 11.91 11.782C12.0687 11.362 12.2927 11.0027 12.582 10.704C12.8807 10.4053 13.2353 10.1767 13.646 10.018C14.066 9.85 14.5327 9.766 15.046 9.766C15.4753 9.766 15.872 9.83133 16.236 9.962C16.6093 10.0833 16.9313 10.2653 17.202 10.508C17.482 10.7413 17.7013 11.0353 17.86 11.39C18.0187 11.7447 18.098 12.146 18.098 12.594C18.098 12.9207 18.0607 13.2053 17.986 13.448C17.9207 13.6813 17.8273 13.8867 17.706 14.064C17.594 14.232 17.4633 14.386 17.314 14.526C17.1647 14.6567 17.0153 14.7873 16.866 14.918C16.6887 15.0673 16.5253 15.212 16.376 15.352C16.2267 15.492 16.096 15.6507 15.984 15.828C15.872 15.996 15.7833 16.1967 15.718 16.43C15.662 16.6633 15.634 16.948 15.634 17.284H14.122C14.122 16.8733 14.1407 16.528 14.178 16.248C14.2247 15.9587 14.2947 15.7067 14.388 15.492C14.4813 15.2773 14.5933 15.0907 14.724 14.932C14.864 14.764 15.0273 14.6007 15.214 14.442C15.3633 14.3113 15.5033 14.19 15.634 14.078C15.774 13.966 15.8953 13.8447 15.998 13.714C16.11 13.574 16.194 13.42 16.25 13.252C16.3153 13.084 16.348 12.8833 16.348 12.65C16.348 12.37 16.2967 12.132 16.194 11.936C16.1007 11.7307 15.984 11.5673 15.844 11.446C15.704 11.3247 15.5547 11.236 15.396 11.18C15.2373 11.124 15.0973 11.096 14.976 11.096C14.3973 11.096 13.968 11.2873 13.688 11.67C13.4173 12.0433 13.282 12.5473 13.282 13.182H11.686Z" fill="#0F6EFF"/>
                                </svg>