<svg width="119" height="31" viewBox="0 0 119 31" fill="none" xmlns="http://www.w3.org/2000/svg">
<g clip-path="url(#clip0)">
<path d="M28.5101 7.2793L37.1145 10.297L33.3099 18.4303L19.2637 17.8816L24.2722 8.13458L28.5101 7.2793Z" fill="#BBCCEB"/>
<path d="M0 16.4925L12.9386 1.7267L20.5798 0L28.5099 5.18011V7.27798L20.8206 15.4758L18.0434 22.1406L12.9868 31L0 16.4925Z" fill="#BBCCEB"/>
<path d="M20.5807 0L18.7988 0.403436L22.2341 13.9589L23.0207 13.1359L28.5108 6.51952V5.18011L20.5807 0Z" fill="#95BAFD"/>
<path d="M24.6738 6.71421L26.8249 5.50391V7.55336L24.6738 6.71421Z" fill="#0E3889"/>
<path d="M22.4746 13.7022L28.5105 7.27951V5.18164L22.4746 13.7022Z" fill="#2D6EFC"/>
<path d="M0 16.4936L8.57224 26.0631L17.3853 18.9787L16.6308 0.888672L12.9386 1.72782L0 16.4936Z" fill="#2D6EFC"/>
<path d="M37.1132 10.2949L33.4531 9.00391L35.5882 13.5708L37.1132 10.2949Z" fill="#0E3889"/>
<path d="M24.0631 19.7697L20.0339 23.3522C20.0339 23.3522 19.1831 22.9488 17.9309 22.3356C14.6883 20.7057 8.84501 17.5266 8.66842 15.7192C8.44368 13.2179 12.8743 1.90559 12.9385 1.74422L18.9744 0.388672L22.4739 13.702L24.0631 19.7697Z" fill="#194BB1"/>
<path d="M84.0858 20.2023H81.7742V16.2648H78.0659V20.2023H75.7383V10.9395H78.0499V14.4574H81.7742V10.9395H84.0858V20.2023Z" fill="#0E3889"/>
<path d="M48.9939 20.2039H46.6181C46.586 20.1233 46.5539 20.0264 46.5218 19.9296C46.3452 19.3648 46.1525 18.8161 45.992 18.2513C45.9599 18.1545 45.9118 18.1222 45.8154 18.1222C44.7078 18.1222 43.6162 18.1222 42.5085 18.1222C42.3962 18.1222 42.3641 18.1545 42.332 18.2513C42.1393 18.8484 41.9467 19.4616 41.7541 20.0587C41.738 20.1071 41.722 20.1394 41.7059 20.1878H39.3301C39.3943 20.0264 39.4424 19.8651 39.5067 19.7037C40.5662 16.8151 41.6417 13.9265 42.7012 11.054C42.7333 10.9572 42.7814 10.9088 42.8938 10.9249C43.7446 10.9249 44.5954 10.9249 45.4462 10.9249C45.5425 10.9249 45.5907 10.9572 45.6228 11.0379C46.7305 14.0556 47.8542 17.0733 48.9618 20.091C48.9618 20.1233 48.9779 20.1555 48.9939 20.2039ZM44.162 12.5871C43.7446 13.8781 43.3272 15.1529 42.9099 16.4601H45.3981C44.9967 15.1691 44.5794 13.8781 44.162 12.5871Z" fill="#0E3889"/>
<path d="M116.816 13.9249V10.9395H118.983V20.2185H118.534C118.133 20.2185 117.747 20.2185 117.346 20.2185C117.266 20.2185 117.234 20.2023 117.218 20.1216C117.169 19.8957 117.089 19.6698 117.025 19.4277C117.009 19.4439 116.977 19.46 116.977 19.4761C116.575 20.0087 116.03 20.3153 115.371 20.396C114.681 20.4767 114.007 20.4121 113.365 20.1055C112.594 19.7343 112.097 19.105 111.872 18.282C111.551 17.1039 111.567 15.9259 112.065 14.8124C112.594 13.586 113.702 13.0857 114.89 13.1503C115.596 13.1826 116.222 13.4246 116.736 13.9249C116.768 13.9087 116.784 13.9087 116.816 13.9249ZM116.704 16.7328C116.704 16.2809 116.64 15.7807 116.399 15.345C116.158 14.9093 115.805 14.6833 115.307 14.6995C114.81 14.7156 114.473 14.9577 114.248 15.3772C114.071 15.7323 114.007 16.1034 113.991 16.4907C113.959 17.0071 113.991 17.5235 114.184 18.0238C114.392 18.5402 114.794 18.8307 115.323 18.8307C115.837 18.8307 116.238 18.5563 116.463 18.0399C116.656 17.6365 116.704 17.2169 116.704 16.7328Z" fill="#0E3889"/>
<path d="M67.6636 13.1035C68.3218 13.1358 68.9639 13.2488 69.5418 13.5231C70.6334 14.0395 71.2113 14.927 71.3718 16.1051C71.4681 16.7506 71.436 17.3961 71.2434 18.0254C70.9384 19.0582 70.2802 19.7683 69.2849 20.1233C68.1612 20.5267 67.0054 20.5267 65.8978 20.0587C64.7741 19.5908 64.1641 18.7193 63.9714 17.5413C63.843 16.7506 63.8751 15.976 64.1801 15.2175C64.5975 14.1363 65.4162 13.507 66.5238 13.2488C66.877 13.1842 67.2783 13.1519 67.6636 13.1035ZM66.2349 16.7667C66.267 17.0249 66.267 17.2992 66.3152 17.5574C66.3794 17.977 66.5239 18.3643 66.861 18.6225C67.5352 19.1551 68.5465 18.8646 68.8836 18.0416C69.0923 17.509 69.1244 16.9442 69.0602 16.3794C69.0281 16.0889 68.9639 15.7823 68.8676 15.508C68.6589 14.9593 68.2255 14.6688 67.6476 14.685C67.0857 14.685 66.6683 14.9755 66.4436 15.5241C66.2831 15.9114 66.251 16.331 66.2349 16.7667Z" fill="#0E3889"/>
<path d="M93.1391 16.7664C93.1231 17.3796 93.0267 17.9606 92.7538 18.5254C92.3686 19.3484 91.7265 19.8971 90.8756 20.1714C89.8162 20.5264 88.7406 20.5264 87.6972 20.123C86.5093 19.6712 85.8511 18.7836 85.6424 17.5572C85.53 16.8955 85.5461 16.2178 85.7387 15.5561C86.0437 14.4749 86.734 13.7487 87.7935 13.3776C88.8369 13.0225 89.9125 13.0225 90.9559 13.3937C92.1278 13.8294 92.802 14.7008 93.0428 15.9111C93.091 16.2016 93.107 16.4921 93.1391 16.7664ZM87.938 16.7664C87.954 16.9762 87.954 17.2021 87.9861 17.4119C88.0343 17.8154 88.1467 18.2188 88.4517 18.5254C89.0777 19.187 90.2335 18.9288 90.5867 18.0574C90.7954 17.5249 90.8275 16.9601 90.7793 16.3953C90.7472 16.0887 90.683 15.782 90.5867 15.5077C90.3941 14.959 89.9446 14.6847 89.3827 14.6847C88.8209 14.6847 88.3874 14.9752 88.1788 15.5077C87.9861 15.895 87.938 16.3307 87.938 16.7664Z" fill="#0E3889"/>
<path d="M110.412 20.2035H108.117V20.0422C108.117 18.7996 108.117 17.5731 108.117 16.3306C108.117 16.0885 108.069 15.8142 107.988 15.5882C107.812 15.088 107.346 14.8136 106.817 14.8136C106.271 14.8136 105.837 15.1041 105.645 15.6205C105.564 15.8464 105.516 16.1046 105.516 16.3467C105.5 17.5731 105.516 18.7996 105.516 20.026V20.2035H103.221V13.3451H105.051C105.115 13.6033 105.163 13.8777 105.227 14.1681C105.259 14.1359 105.275 14.1197 105.292 14.1036C105.934 13.3774 106.752 13.1031 107.699 13.1353C108.342 13.1515 108.92 13.329 109.401 13.7486C109.931 14.2004 110.204 14.7814 110.332 15.443C110.38 15.7335 110.412 16.0239 110.412 16.3144C110.428 17.5731 110.412 18.8157 110.412 20.0744V20.2035Z" fill="#0E3889"/>
<path d="M49.781 13.3438H52.0766V13.5051C52.0766 14.78 52.0766 16.0548 52.0766 17.3297C52.0766 17.5718 52.1087 17.8138 52.1729 18.0397C52.3174 18.5077 52.6545 18.7659 53.136 18.8143C53.6337 18.8627 54.035 18.7014 54.324 18.2657C54.5005 17.9913 54.5648 17.6847 54.5648 17.362C54.5648 16.0871 54.5648 14.8123 54.5648 13.5213V13.3438H56.8443V20.186H55.0142C54.95 19.9117 54.9019 19.6373 54.8377 19.3469C54.8055 19.363 54.7895 19.3791 54.7734 19.3953C54.0992 20.186 53.2324 20.4765 52.205 20.3958C51.6431 20.3474 51.1294 20.2022 50.696 19.831C50.2144 19.4114 49.9576 18.8789 49.8613 18.2657C49.7971 17.9268 49.781 17.5718 49.7649 17.2167C49.7489 15.9742 49.7649 14.7154 49.7649 13.4728C49.7649 13.4406 49.7649 13.3922 49.781 13.3438Z" fill="#0E3889"/>
<path d="M94.3748 13.3438H96.6703V13.5051C96.6703 14.78 96.6703 16.0548 96.6703 17.3458C96.6703 17.5718 96.7024 17.8138 96.7666 18.0397C96.9111 18.5077 97.2482 18.7659 97.7298 18.8143C98.2274 18.8628 98.6288 18.7014 98.9177 18.2818C99.0943 18.0075 99.1585 17.7009 99.1585 17.3781C99.1585 16.1033 99.1585 14.8123 99.1585 13.5374V13.376H101.438V20.2183H99.608C99.5438 19.944 99.4956 19.6696 99.4314 19.3791C99.3993 19.3953 99.3832 19.4114 99.3672 19.4276C98.693 20.2183 97.8261 20.5088 96.7987 20.4281C96.2369 20.3797 95.7232 20.2344 95.2898 19.8633C94.8082 19.4437 94.5513 18.9112 94.455 18.2979C94.3908 17.9591 94.3747 17.604 94.3587 17.249C94.3426 16.0064 94.3587 14.7477 94.3587 13.5051C94.3747 13.4406 94.3748 13.3922 94.3748 13.3438Z" fill="#0E3889"/>
<path d="M61.3229 14.7495V14.927C61.3229 15.9114 61.3229 16.8796 61.3229 17.864C61.3229 17.9286 61.3229 18.0092 61.3229 18.0738C61.355 18.5418 61.6119 18.8323 62.0774 18.8484C62.3343 18.8645 62.6072 18.8161 62.864 18.8C62.9122 18.8 62.9443 18.7838 63.0085 18.7677C63.0567 19.2034 63.1048 19.623 63.153 20.0264C63.153 20.0587 63.1048 20.1232 63.0727 20.1394C62.848 20.2039 62.6072 20.3008 62.3664 20.333C61.8206 20.4137 61.2748 20.4299 60.729 20.2846C59.6534 19.978 59.0434 19.1711 59.0434 18.0577C59.0434 17.0087 59.0434 15.9759 59.0434 14.927V14.7495H58V13.3294C58.1124 13.3294 58.2408 13.3294 58.3532 13.3294C58.4816 13.3294 58.61 13.3294 58.7384 13.3133C59.0755 13.281 59.3003 13.1035 59.4287 12.7969C59.5571 12.458 59.5892 12.1029 59.6213 11.7479C59.6213 11.6672 59.6374 11.5865 59.6374 11.5059H61.3229V13.3294H63.2011V14.7495H61.3229Z" fill="#0E3889"/>
</g>
<defs>
<clipPath id="clip0">
<rect width="119" height="31" fill="white"/>
</clipPath>
</defs>
</svg>
