<svg width="17" height="17" viewBox="0 0 17 17" fill="none" xmlns="http://www.w3.org/2000/svg">
<g clip-path="url(#clip0)">
<path d="M14.1073 13.8949C15.0204 12.9807 15.6701 11.9055 16.0588 10.7591L13.6037 10.7591C13.3288 11.311 12.9712 11.8343 12.5112 12.2931C10.2183 14.5849 6.49018 14.5849 4.19836 12.2931C1.90999 10.0013 1.90999 6.27547 4.19836 3.98021C6.49248 1.69069 10.2183 1.69069 12.5112 3.98021C12.5181 3.98596 12.5296 4.00436 12.54 4.01241L12.54 4.01471L10.6429 6.26077L16.2773 6.26077L16.2773 0.000267478L14.143 2.414C14.1292 2.40595 14.1154 2.3933 14.1073 2.38295C10.9312 -0.794317 5.77837 -0.794317 2.60225 2.38295C-0.577318 5.56482 -0.577319 10.7142 2.60225 13.8949C5.77837 17.0699 10.9312 17.0734 14.1073 13.8949Z" fill="#0044AA"/>
</g>
<defs>
<clipPath id="clip0">
<rect width="16.2773" height="16.2773" fill="white" transform="translate(16.2773) rotate(90)"/>
</clipPath>
</defs>
</svg>
